HIERARCHY
ROOT hip
{
	OFFSET 0.000000 0.000000 0.000000
	CHANNELS 6 Xposition Yposition Zposition Zrotation Yrotation Xrotation 
	JOINT lhipjoint
	{
		OFFSET 0.000000 0.000000 0.000000
		CHANNELS 3 Zrotation Yrotation Xrotation
		JOINT lfemur
		{
			OFFSET 1.363060 -1.794630 0.839290
			CHANNELS 3 Zrotation Yrotation Xrotation
			JOINT ltibia
			{
				OFFSET 2.448110 -6.726130 0.000000
				CHANNELS 3 Zrotation Yrotation Xrotation
				JOINT lfoot
				{
					OFFSET 2.562200 -7.039590 0.000000
					CHANNELS 3 Zrotation Yrotation Xrotation
					JOINT ltoes
					{
						OFFSET 0.157640 -0.433110 2.322550
						CHANNELS 3 Zrotation Yrotation Xrotation
						End Site
						{
							OFFSET 0.000000 0.000000 0.000000
						}
					}
				}
			}
		}
	}
	JOINT rhipjoint
	{
		OFFSET 0.000000 0.000000 0.000000
		CHANNELS 3 Zrotation Yrotation Xrotation
		JOINT rfemur
		{
			OFFSET -1.305520 -1.794630 0.839290
			CHANNELS 3 Zrotation Yrotation Xrotation
			JOINT rtibia
			{
				OFFSET -2.542530 -6.985550 0.000000
				CHANNELS 3 Zrotation Yrotation Xrotation
				JOINT rfoot
				{
					OFFSET -2.568260 -7.056230 0.000000
					CHANNELS 3 Zrotation Yrotation Xrotation
					JOINT rtoes
					{
						OFFSET -0.164730 -0.452590 2.363150
						CHANNELS 3 Zrotation Yrotation Xrotation
						End Site
						{
							OFFSET 0.000000 0.000000 0.000000
						}
					}
				}
			}
		}
	}
	JOINT lowerback
	{
		OFFSET 0.000000 0.000000 0.000000
		CHANNELS 3 Zrotation Yrotation Xrotation
		JOINT upperback
		{
			OFFSET 0.028270 2.035590 -0.193380
			CHANNELS 3 Zrotation Yrotation Xrotation
			JOINT thorax
			{
				OFFSET 0.056720 2.048850 -0.042750
				CHANNELS 3 Zrotation Yrotation Xrotation
				JOINT lowerneck
				{
					OFFSET 0.000000 0.000000 0.000000
					CHANNELS 3 Zrotation Yrotation Xrotation
					JOINT upperneck
					{
						OFFSET -0.054170 1.746240 0.172020
						CHANNELS 3 Zrotation Yrotation Xrotation
						JOINT head
						{
							OFFSET 0.104070 1.761360 -0.123970
							CHANNELS 3 Zrotation Yrotation Xrotation
							End Site
							{
								OFFSET 0.000000 0.000000 0.000000
							}
						}
					}
				}
				JOINT lclavicle
				{
					OFFSET 0.000000 0.000000 0.000000
					CHANNELS 3 Zrotation Yrotation Xrotation
					JOINT lhumerus
					{
						OFFSET 3.362410 1.200890 -0.311210
						CHANNELS 3 Zrotation Yrotation Xrotation
						JOINT lradius
						{
							OFFSET 4.983000 -0.000000 -0.000000
							CHANNELS 3 Zrotation Yrotation Xrotation
							JOINT lwrist
							{
								OFFSET 3.483560 -0.000000 -0.000000
								CHANNELS 3 Zrotation Yrotation Xrotation
								JOINT lhand
								{
									OFFSET 0.000000 0.000000 0.000000
									CHANNELS 3 Zrotation Yrotation Xrotation
									JOINT lfingers
									{
										OFFSET 0.715260 -0.000000 -0.000000
										CHANNELS 3 Zrotation Yrotation Xrotation
										End Site
										{
											OFFSET 0.000000 0.000000 0.000000
										}
									}
								}
								JOINT lthumb
								{
									OFFSET 0.000000 0.000000 0.000000
									CHANNELS 3 Zrotation Yrotation Xrotation
									End Site
									{
										OFFSET 0.000000 0.000000 0.000000
									}
								}
							}
						}
					}
				}
				JOINT rclavicle
				{
					OFFSET 0.000000 0.000000 0.000000
					CHANNELS 3 Zrotation Yrotation Xrotation
					JOINT rhumerus
					{
						OFFSET -3.136600 1.374050 -0.404650
						CHANNELS 3 Zrotation Yrotation Xrotation
						JOINT rradius
						{
							OFFSET -5.241900 -0.000000 -0.000000
							CHANNELS 3 Zrotation Yrotation Xrotation
							JOINT rwrist
							{
								OFFSET -3.444170 -0.000000 -0.000000
								CHANNELS 3 Zrotation Yrotation Xrotation
								JOINT rhand
								{
									OFFSET 0.000000 0.000000 0.000000
									CHANNELS 3 Zrotation Yrotation Xrotation
									JOINT rfingers
									{
										OFFSET -0.622530 -0.000000 -0.000000
										CHANNELS 3 Zrotation Yrotation Xrotation
										End Site
										{
											OFFSET 0.000000 0.000000 0.000000
										}
									}
								}
								JOINT rthumb
								{
									OFFSET 0.000000 0.000000 0.000000
									CHANNELS 3 Zrotation Yrotation Xrotation
									End Site
									{
										OFFSET 0.000000 0.000000 0.000000
									}
								}
							}
						}
					}
				}
			}
		}
	}
}
MOTION
Frames: 12
Frame Time: 0.008333
1.395570 16.986160 16.831580 3.866987 62.380205 -0.651998 4.573772 2.919383 -0.298262 -15.682475 -11.208383 0.553524 4.748033 11.985855 40.980912 2.802671 -11.620887 10.708461 0.415900 -4.139800 -11.470200 -7.456133 -2.844744 -1.812771 30.269664 17.416480 3.897380 -4.011527 -7.938384 26.222605 -0.373305 -6.958178 -20.971247 -0.221700 3.031300 -8.365800 0.585950 -2.557478 11.155861 0.381067 -3.492061 -3.331457 0.111261 -1.184367 -1.940126 -9.027226 -9.278565 -1.863491 7.502735 -14.113548 24.269528 2.510100 -6.777400 4.425100 4.098998 -9.577970 2.079445 -95.557451 -3.831177 -37.541288 4.346413 -13.028626 -1.129835 -0.048263 0.660988 55.361921 8.441432 -3.466179 -0.602100 -7.125000 0.000000 0.000000 -13.271900 26.088500 6.242100 2.424408 8.833628 6.589759 34.412029 9.389141 4.644734 -36.703419 41.271599 -12.853664 -0.924763 -1.265206 32.819312 -12.119304 5.830866 -1.580000 7.125000 0.000000 0.000000 10.756400 -22.419700 5.943600 
1.390637 16.984806 16.843092 3.992025 62.609589 -0.482386 4.569703 2.906461 -0.308954 -15.700219 -11.123918 0.376052 4.775810 12.010389 41.065968 2.772262 -11.385595 10.598226 0.430000 -4.208500 -11.664000 -7.485274 -2.820785 -1.792267 30.498919 17.939224 4.178586 -4.020307 -7.931066 26.228209 -0.361755 -7.496930 -21.606210 -0.206800 2.927800 -8.077700 0.649831 -2.546288 11.183326 0.385354 -3.471180 -3.330497 0.097410 -1.172143 -1.938023 -9.083539 -9.333067 -1.899540 7.493484 -14.173992 24.324620 2.510600 -6.808800 4.476100 4.073891 -9.576320 2.079340 -95.344108 -3.956879 -37.052224 4.257618 -13.035710 -1.119754 -0.073856 0.690322 55.548237 8.030598 -3.319613 -0.553700 -7.125000 0.000000 0.000000 -13.564400 26.240400 6.337400 2.429521 8.835423 6.591358 34.829035 8.762536 4.163216 -37.833548 41.983367 -13.596257 -0.881895 -1.244882 33.126477 -11.798123 5.676170 -1.500200 7.125000 0.000000 0.000000 10.977300 -22.627600 6.016900 
1.386671 16.983742 16.853442 4.117517 62.841101 -0.327671 4.565246 2.894664 -0.320117 -15.713728 -10.998235 0.202251 4.805689 12.036616 41.158879 2.743914 -11.170559 10.465430 0.446000 -4.284700 -11.879100 -7.511526 -2.799264 -1.775656 30.712332 18.398266 4.443668 -4.029678 -7.927600 26.244212 -0.349771 -8.004195 -22.194149 -0.198500 2.869100 -7.914700 0.723948 -2.532523 11.219811 0.388470 -3.446063 -3.326953 0.069421 -1.157026 -1.926324 -9.135180 -9.393604 -1.937663 7.477476 -14.240354 24.362996 2.509900 -6.844400 4.520200 4.046031 -9.570660 2.081790 -95.120960 -4.096697 -36.537904 4.173729 -13.051969 -1.110786 -0.096888 0.717649 55.612148 7.644091 -3.194141 -0.512000 -7.125000 0.000000 0.000000 -13.839800 26.368600 6.430400 2.431215 8.834302 6.590849 35.294129 8.154682 3.632864 -38.970149 42.675796 -14.366915 -0.844007 -1.230628 33.407032 -11.545439 5.549070 -1.438200 7.125000 0.000000 0.000000 11.148500 -22.796900 6.070200 
1.382801 16.982484 16.862342 4.244124 63.081760 -0.157910 4.561359 2.881749 -0.331902 -15.725456 -10.889301 0.011666 4.837101 12.065554 41.260494 2.717283 -10.972040 10.333529 0.452800 -4.317200 -11.970700 -7.541129 -2.775652 -1.753224 30.939170 18.924604 4.710893 -4.042642 -7.929881 26.280425 -0.340366 -8.546730 -22.848677 -0.184100 2.763500 -7.620900 0.797581 -2.520667 11.245908 0.391531 -3.423603 -3.325748 0.041978 -1.144064 -1.922981 -9.206204 -9.449898 -1.975623 7.470656 -14.303673 24.417130 2.518100 -6.880100 4.576000 4.013276 -9.574467 2.090410 -94.902418 -4.177769 -35.815084 4.106280 -13.163204 -1.109167 -0.114550 0.754585 55.315013 7.270665 -3.067957 -0.474900 -7.125000 0.000000 0.000000 -14.102200 26.482800 6.520500 2.426046 8.836278 6.585920 35.820039 7.540845 3.084934 -40.152244 43.368525 -15.188403 -0.812427 -1.228479 33.676655 -11.416692 5.424307 -1.396600 7.125000 0.000000 0.000000 11.228400 -22.945400 6.076400 
1.378835 16.981517 16.869693 4.377442 63.315743 0.013968 4.557534 2.869732 -0.343326 -15.739494 -10.759840 -0.185977 4.869667 12.095918 41.367788 2.693357 -10.795344 10.196918 0.466600 -4.381200 -12.151700 -7.569099 -2.754582 -1.731083 31.143649 19.413088 4.948704 -4.057099 -7.937743 26.331688 -0.337468 -9.026991 -23.469060 -0.176000 2.702200 -7.450700 0.868228 -2.504355 11.281576 0.394210 -3.395728 -3.324720 0.019111 -1.128130 -1.928254 -9.279945 -9.503179 -1.997059 7.465105 -14.364562 24.456812 2.529400 -6.915700 4.622400 3.982143 -9.580669 2.100399 -94.703248 -4.262396 -35.075275 4.054432 -13.298437 -1.110674 -0.125283 0.787262 54.898972 6.984302 -2.968271 -0.448000 -7.125000 0.000000 0.000000 -14.302600 26.565500 6.590100 2.418256 8.838837 6.579720 36.370763 6.926669 2.528224 -41.358819 44.049550 -16.048030 -0.789508 -1.234344 33.850731 -11.397116 5.347794 -1.380300 7.125000 0.000000 0.000000 11.228900 -23.030500 6.054300 
1.374966 16.979389 16.876078 4.538767 63.576981 0.216443 4.553780 2.856801 -0.355639 -15.760060 -10.633549 -0.397130 4.903375 12.129027 41.485859 2.676830 -10.673176 10.062959 0.491600 -4.495700 -12.475600 -7.598488 -2.732484 -1.708289 31.345837 19.921648 5.189891 -4.074338 -7.950240 26.398361 -0.337582 -9.532965 -24.141456 -0.168700 2.645900 -7.294400 0.923643 -2.494597 11.310059 0.397393 -3.377648 -3.323293 0.005735 -1.116637 -1.927905 -9.370502 -9.555942 -2.020082 7.476223 -14.430909 24.496005 2.551100 -6.955600 4.673300 3.948823 -9.590186 2.113936 -94.520523 -4.335588 -34.264855 4.026043 -13.488933 -1.117491 -0.129897 0.817146 54.309224 6.780961 -2.911510 -0.432700 -7.125000 0.000000 0.000000 -14.440800 26.600100 6.645600 2.406854 8.838200 6.569105 36.956568 6.299128 1.954170 -42.649773 44.750102 -16.988233 -0.772501 -1.251743 33.897827 -11.504409 5.288657 -1.385800 7.125000 0.000000 0.000000 11.136300 -23.081000 5.989300 
1.371967 16.977648 16.882172 4.678785 63.842195 0.389017 4.549922 2.844611 -0.367742 -15.770641 -10.514388 -0.596048 4.938401 12.164022 41.610425 2.662468 -10.567207 9.927606 0.509500 -4.575500 -12.701700 -7.627078 -2.710478 -1.687683 31.557009 20.404750 5.430333 -4.093606 -7.968313 26.483920 -0.342401 -10.017824 -24.816608 -0.158000 2.561500 -7.060300 0.984696 -2.492442 11.338608 0.400544 -3.368766 -3.320761 -0.023249 -1.110690 -1.921396 -9.436231 -9.604732 -2.043876 7.469854 -14.484757 24.546940 2.562100 -6.987700 4.720300 3.909580 -9.600895 2.138974 -94.354355 -4.337484 -33.187224 4.066836 -13.852386 -1.139022 -0.128711 0.859179 53.401062 6.641654 -2.859277 -0.424300 -7.125000 0.000000 0.000000 -14.526000 26.614100 6.682300 2.396562 8.843894 6.555465 37.598716 5.664315 1.384423 -44.032428 45.467232 -18.013781 -0.758841 -1.279288 33.850460 -11.709306 5.232397 -1.405900 7.125000 0.000000 0.000000 10.971000 -23.115000 5.888400 
1.368969 16.974552 16.887589 4.803124 64.138879 0.563724 4.545207 2.831732 -0.379678 -15.761053 -10.413066 -0.831614 4.975108 12.203449 41.746284 2.650974 -10.479321 9.802240 0.533400 -4.679800 -12.997600 -7.659196 -2.689509 -1.662354 31.786360 20.912847 5.648710 -4.116780 -7.994757 26.597252 -0.352261 -10.509724 -25.530446 -0.151200 2.505800 -6.905700 1.041146 -2.489677 11.354076 0.406669 -3.359355 -3.319573 -0.013594 -1.103750 -1.920594 -9.547078 -9.652603 -2.044083 7.494688 -14.551013 24.572042 2.598200 -7.031400 4.760300 3.871074 -9.624322 2.170366 -94.268568 -4.293724 -31.961782 4.185733 -14.368690 -1.174659 -0.129631 0.912332 52.314610 6.530357 -2.835580 -0.422700 -7.125000 0.000000 0.000000 -14.580200 26.592000 6.716700 2.382464 8.845003 6.538274 38.245019 5.017443 0.789735 -45.482542 46.181133 -19.112877 -0.750232 -1.315064 33.708720 -12.030366 5.193636 -1.445700 7.125000 0.000000 0.000000 10.720600 -23.117200 5.748700 
1.366840 16.969715 16.893296 4.967655 64.481781 0.771365 4.540886 2.818253 -0.391528 -15.777052 -10.373518 -1.050635 5.012923 12.244872 41.889114 2.641247 -10.405446 9.673691 0.550500 -4.753200 -13.206000 -7.691389 -2.666493 -1.641401 32.011875 21.410029 5.880460 -4.143392 -8.026606 26.729490 -0.367957 -11.022494 -26.303099 -0.142200 2.430200 -6.696100 1.071547 -2.510807 11.355476 0.413926 -3.383139 -3.316474 -0.017484 -1.114573 -1.901161 -9.607629 -9.703679 -2.050120 7.482213 -14.607393 24.613558 2.606900 -7.065400 4.790700 3.831052 -9.637548 2.208039 -94.152265 -4.230697 -30.674769 4.333545 -14.927197 -1.215217 -0.126839 0.962578 51.075269 6.472377 -2.850345 -0.429300 -7.125000 0.000000 0.000000 -14.594900 26.527800 6.746700 2.373036 8.851023 6.518875 38.957670 4.363826 0.187789 -47.095208 46.931050 -20.352457 -0.740802 -1.354460 33.478333 -12.383177 5.169349 -1.493200 7.125000 0.000000 0.000000 10.445700 -23.100600 5.600400 
1.365196 16.965072 16.898423 5.120853 64.849600 0.979080 4.535347 2.804251 -0.402414 -15.768879 -10.338387 -1.299151 5.051377 12.290025 42.043006 2.640392 -10.390166 9.576628 0.569600 -4.833700 -13.434800 -7.724803 -2.646277 -1.619078 32.239810 21.889473 6.090469 -4.171351 -8.062297 26.873957 -0.391807 -11.515538 -27.095513 -0.137300 2.388000 -6.579300 1.109265 -2.535801 11.346390 0.422769 -3.412086 -3.314665 -0.002962 -1.126868 -1.886041 -9.715695 -9.739352 -2.049056 7.509589 -14.658639 24.643737 2.644700 -7.101700 4.826800 3.789335 -9.660662 2.246561 -94.090484 -4.159122 -29.409256 4.530661 -15.534547 -1.265395 -0.112375 1.011769 49.798681 6.563106 -2.874746 -0.446900 -7.125000 0.000000 0.000000 -14.504700 26.444400 6.731800 2.356874 8.850678 6.495884 39.679853 3.716964 -0.435355 -48.787205 47.664719 -21.679322 -0.734093 -1.393404 33.217673 -12.771804 5.184429 -1.554400 7.125000 0.000000 0.000000 10.144500 -23.041000 5.447900 
1.363842 16.959655 16.902679 5.301208 65.212019 1.204434 4.530691 2.789369 -0.414320 -15.782836 -10.314053 -1.529103 5.090733 12.334314 42.197345 2.638571 -10.369762 9.459119 0.588600 -4.911900 -13.657500 -7.759306 -2.622775 -1.594658 32.480021 22.418822 6.327104 -4.202129 -8.102210 27.034593 -0.416461 -12.041944 -27.920552 -0.128800 2.313100 -6.371800 1.126464 -2.558125 11.343786 0.431755 -3.438868 -3.313219 0.023689 -1.138483 -1.881563 -9.827189 -9.776752 -2.016448 7.515779 -14.706813 24.668635 2.676500 -7.137700 4.847900 3.748215 -9.685875 2.287091 -94.022460 -4.083247 -28.145081 4.733401 -16.138523 -1.316560 -0.097406 1.057208 48.458757 6.666085 -2.940439 -0.470500 -7.125000 0.000000 0.000000 -14.405300 26.320800 6.726000 2.341615 8.853249 6.474116 40.427667 3.027523 -1.045080 -50.648789 48.412139 -23.163394 -0.726072 -1.433312 32.936312 -13.192894 5.199907 -1.620900 7.125000 0.000000 0.000000 9.819200 -22.978800 5.282200 
1.362778 16.955012 16.905388 5.466556 65.593336 1.434999 4.525842 2.773943 -0.425741 -15.783645 -10.324319 -1.787422 5.128691 12.380239 42.352360 2.640720 -10.374569 9.370647 0.608500 -4.992800 -13.888000 -7.793693 -2.602565 -1.571318 32.705468 22.910985 6.526938 -4.231700 -8.141587 27.190295 -0.446173 -12.537928 -28.726872 -0.122700 2.257900 -6.219000 1.158899 -2.584839 11.320016 0.441394 -3.470588 -3.309898 0.040397 -1.151376 -1.860928 -9.940770 -9.809616 -1.976643 7.547778 -14.759427 24.674036 2.722200 -7.177800 4.860400 3.702501 -9.710457 2.333914 -93.938790 -4.006481 -26.803181 4.944080 -16.759472 -1.372758 -0.068038 1.100200 46.960497 6.895325 -3.016996 -0.505000 -7.125000 0.000000 0.000000 -14.221600 26.174200 6.685400 2.323078 8.847922 6.449250 41.220280 2.377103 -1.685381 -52.591226 49.129539 -24.740367 -0.722879 -1.471369 32.679144 -13.652687 5.289165 -1.711100 7.125000 0.000000 0.000000 9.465300 -22.838000 5.117600 
